<svg xmlns="http://www.w3.org/2000/svg" viewBox="0 0 1110 250"><style>.st0{fill:#0CB9C2;} .st1{display:none;} .st2{display:inline;}</style><g id="text"><path class="st0" d="M256.6 186.6v-140H322v8.9h-55.8v56.2H318v8.8h-51.8v57.4h59v8.8h-68.6zM412.6 186.6v-58.2c0-24-8.7-36-26-36-9.6 0-17.5 3.5-23.7 10.6-6.2 7.1-9.3 15.8-9.3 26.2v57.4h-9v-100h9v18.2h.4c7.3-13.7 18.7-20.6 34.2-20.6 10.8 0 19.1 3.6 24.8 10.8 5.7 7.2 8.6 17.5 8.6 30.8v60.8h-9zM506.5 182.2c-7.4 4.6-16.3 6.8-26.6 6.8-13.6 0-24.6-4.7-32.9-14-8.3-9.3-12.5-21.6-12.5-36.7 0-15.9 4.7-28.9 14.1-39 9.4-10.1 21.4-15.2 36.1-15.2 7.6 0 15 1.6 22.2 4.7V99c-7.2-4.4-15-6.6-23.5-6.6-11.7 0-21.2 4.2-28.5 12.6-7.3 8.4-10.9 19.4-10.9 32.8 0 13 3.3 23.4 10 31.3 6.7 7.9 15.5 11.8 26.4 11.8 10 0 18.8-2.7 26.2-8v9.3zM567.6 96c-3-2.1-6.5-3.2-10.5-3.2-7.9 0-14.5 4.1-19.8 12.2-5.3 8.1-8 19.7-8 34.7v47h-8.8v-100h8.8v22.2h.4c2.3-7.6 5.9-13.5 10.8-17.8 4.9-4.2 10.7-6.3 17.2-6.3 3.7 0 7 .6 10 1.8V96zM613.1 207c-3.6 9-7.7 15.7-12.1 20-4.4 4.4-10.1 6.5-17.1 6.5-2.9 0-5.5-.5-7.8-1.4v-9c2.3.9 5.1 1.4 8.2 1.4 8 0 14.3-5.5 18.9-16.6l9.3-22.2-37.9-99.2h10.1l30.2 81.4c.7 1.8 1.1 3.1 1.4 4 .3 1.2.6 2.3.9 3.3h.4l2.3-6.7 32.2-82h9.8L613.1 207zM678.7 168.9h-.4v63.8h-9v-146h9v20.6h.4c3.6-7.4 8.7-13 15.4-17 6.7-4 14-6 22-6 12.7 0 22.6 4.4 29.7 13.1 7.1 8.8 10.7 20.7 10.7 35.7 0 16.7-4.1 30.3-12.3 40.6-8.2 10.3-19 15.5-32.4 15.5-14.9-.1-25.9-6.9-33.1-20.3zm-.4-37.3v12.6c0 10 3.2 18.6 9.5 25.8 6.3 7.2 14.6 10.8 24.9 10.8 10.2 0 18.5-4.4 24.9-13.1 6.4-8.8 9.6-20.3 9.6-34.5 0-12.5-2.9-22.4-8.8-29.8-5.9-7.4-13.7-11-23.4-11-11.7 0-20.7 3.9-27.1 11.7-6.4 7.8-9.6 17-9.6 27.5zM810.9 185.3c-4.7 2.2-9.1 3.3-13.2 3.3-14.8 0-22.2-8.9-22.2-26.6V94.8h-18v-8.2h18v-26c1.4-.5 2.9-1 4.5-1.6 1.6-.5 3.1-.9 4.5-1.5v29h26.4v8.2h-26.4v66c0 6.9 1.1 11.9 3.3 15 2.2 3.1 5.9 4.6 11.1 4.6 3.7 0 7.7-1.2 12-3.6v8.6zM860.9 189.1c-14.6 0-26.1-4.8-34.6-14.4-8.5-9.6-12.7-22.1-12.7-37.5 0-16.6 4.4-29.6 13.3-39s20.6-14.1 35.1-14.1c14.3 0 25.5 4.7 33.8 14 8.3 9.3 12.4 22.2 12.4 38.7 0 15.6-4.2 28.2-12.6 37.8-8.6 9.6-20.1 14.5-34.7 14.5zm.6-96.7c-11.8 0-21.2 4-28.2 11.9s-10.5 19-10.5 33.1c0 13.1 3.4 23.6 10.3 31.5 6.8 7.9 16.2 11.9 28 11.9 12 0 21.3-3.9 27.8-11.7 6.5-7.8 9.8-18.7 9.8-32.5 0-14.3-3.2-25.2-9.7-32.8-6.5-7.6-15.6-11.4-27.5-11.4zM962.9 55.5v131.2h-9.6V55.5h-40.4v-8.9h90.4v8.9h-40.4z"/><path class="st0" d="M985.9 137c0 13.7 3.2 24.5 9.5 32.2 6.3 7.7 15.1 11.6 26.1 11.6 11.2 0 22.1-4.1 32.8-12.4v9.6c-10.4 7.4-21.9 11-34.7 11-12.9 0-23.3-4.6-31.3-13.9-7.9-9.2-11.9-22.3-11.9-39.2 0-14.6 4.2-26.9 12.5-36.9s19.1-15 32.4-15c12.4 0 22 4.4 28.6 13.1 6.6 8.7 10 20.6 10 35.7v4h-74zm64.6-8.2c-.4-11.5-3.2-20.5-8.3-26.9-5.1-6.4-12.2-9.6-21.3-9.6-9.4 0-17.1 3.1-23.3 9.4-6.2 6.3-9.9 15.3-11.4 27h64.3zM1074.7 186.6v-148h9v148h-9z"/></g><g id="lines"><path class="st0" d="M49.074 44.674l56.992 56.992-8.343 8.344L40.73 53.018zM107.5 110h11.8v80.6h-11.8z"/><path class="st0" d="M113.4 180.7H194v11.8h-80.6zM40.7 41h80.6v11.8H40.7z"/><path class="st0" d="M106 41.3h80.6v11.8H106z"/></g><g id="O_-_fill"><circle class="st0" cx="183.2" cy="187.2" r="21"/><circle class="st0" cx="113.2" cy="187.2" r="21"/><circle class="st0" cx="43.2" cy="187.2" r="21"/><circle class="st0" cx="43.2" cy="117.2" r="21"/><circle class="st0" cx="113.2" cy="117.2" r="21"/><circle class="st0" cx="183.2" cy="117.2" r="21"/><circle class="st0" cx="183.2" cy="47.2" r="21"/><circle class="st0" cx="113.2" cy="47.2" r="21"/><circle class="st0" cx="43.2" cy="47.2" r="21"/></g></svg>